<?xml version="1.0" encoding="UTF-8" standalone="no"?>
<svg
   xmlns:dc="http://purl.org/dc/elements/1.1/"
   xmlns:cc="http://creativecommons.org/ns#"
   xmlns:rdf="http://www.w3.org/1999/02/22-rdf-syntax-ns#"
   xmlns:svg="http://www.w3.org/2000/svg"
   xmlns="http://www.w3.org/2000/svg"
   xmlns:sodipodi="http://sodipodi.sourceforge.net/DTD/sodipodi-0.dtd"
   xmlns:inkscape="http://www.inkscape.org/namespaces/inkscape"
   sodipodi:docname="thumbnail.svg"
   inkscape:version="1.0 (4035a4f, 2020-05-01)"
   id="svg8"
   version="1.1"
   viewBox="0 0 284.08215 216.81845"
   height="216.81845mm"
   width="284.08215mm">
  <defs
     id="defs2" />
  <sodipodi:namedview
     inkscape:window-maximized="0"
     inkscape:window-y="23"
     inkscape:window-x="0"
     inkscape:window-height="775"
     inkscape:window-width="1252"
     showgrid="false"
     inkscape:document-rotation="0"
     inkscape:current-layer="layer1"
     inkscape:document-units="mm"
     inkscape:cy="658.53604"
     inkscape:cx="606.51444"
     inkscape:zoom="0.34383018"
     inkscape:pageshadow="2"
     inkscape:pageopacity="0.0"
     borderopacity="1.0"
     bordercolor="#666666"
     pagecolor="#ffffff"
     id="base" />
  <metadata
     id="metadata5">
    <rdf:RDF>
      <cc:Work
         rdf:about="">
        <dc:format>image/svg+xml</dc:format>
        <dc:type
           rdf:resource="http://purl.org/dc/dcmitype/StillImage" />
        <dc:title></dc:title>
      </cc:Work>
    </rdf:RDF>
  </metadata>
  <g
     transform="translate(43.845239,3.2678571)"
     id="layer1"
     inkscape:groupmode="layer"
     inkscape:label="Layer 1">
    <rect
       y="31.75"
       x="11.339286"
       height="44.601189"
       width="28.726189"
       id="rect10"
       style="fill:#ffffff;fill-opacity:1;fill-rule:evenodd;stroke:#000000;stroke-width:1.5;stroke-opacity:1" />
    <path
       id="path835"
       d="M 11.339286,31.75 C -19.637001,34.118314 -12.224493,-2.2678571 -43.845239,-2.2678571"
       style="fill:none;stroke:#9e6600;stroke-width:2;stroke-linecap:butt;stroke-linejoin:miter;stroke-miterlimit:4;stroke-dasharray:none;stroke-opacity:1" />
    <rect
       style="fill:#ffffff;fill-opacity:1;fill-rule:evenodd;stroke:#000000;stroke-width:1.5;stroke-opacity:1"
       id="rect10-8"
       width="28.726191"
       height="44.601189"
       x="71.815475"
       y="48.002979" />
    <rect
       style="fill:#ffffff;fill-opacity:1;fill-rule:evenodd;stroke:#000000;stroke-width:1.5;stroke-opacity:1"
       id="rect10-0"
       width="28.726191"
       height="44.601189"
       x="127.75595"
       y="36.663689" />
    <rect
       style="fill:#ffffff;fill-opacity:1;fill-rule:evenodd;stroke:#000000;stroke-width:1.5;stroke-opacity:1"
       id="rect10-2"
       width="28.726191"
       height="44.601189"
       x="146.65477"
       y="96.383926" />
    <rect
       style="fill:#ffffff;fill-opacity:1;fill-rule:evenodd;stroke:#000000;stroke-width:1.5;stroke-opacity:1"
       id="rect10-4"
       width="28.726191"
       height="44.601189"
       x="98.273804"
       y="109.23512" />
    <rect
       style="fill:#ffffff;fill-opacity:1;fill-rule:evenodd;stroke:#000000;stroke-width:1.5;stroke-opacity:1"
       id="rect10-83"
       width="28.726191"
       height="44.601189"
       x="141.3631"
       y="168.1994" />
    <path
       id="path880"
       d="m 40.065475,31.75 c 12.186841,1.752885 23.862316,12.30913 31.75,16.252978"
       style="fill:none;stroke:#9e6600;stroke-width:2;stroke-linecap:butt;stroke-linejoin:miter;stroke-miterlimit:4;stroke-dasharray:none;stroke-opacity:1" />
    <path
       id="path882"
       d="m 100.54166,48.002978 c 8.61784,-2.280851 21.41055,-9.598165 27.21429,-11.33929"
       style="fill:none;stroke:#9e6600;stroke-width:2;stroke-linecap:butt;stroke-linejoin:miter;stroke-miterlimit:4;stroke-dasharray:none;stroke-opacity:1" />
    <path
       id="path884"
       d="m 156.48215,36.663688 c 5.5973,0.416692 10.95198,-0.377973 16.63094,-0.377973 5.79569,0 12.3947,-2.192994 18.14286,-0.755955 14.15651,3.539128 14.37308,57.829365 -15.87498,60.854166"
       style="fill:none;stroke:#9e6600;stroke-width:2;stroke-linecap:butt;stroke-linejoin:miter;stroke-miterlimit:4;stroke-dasharray:none;stroke-opacity:1" />
    <path
       id="path886"
       d="m 146.65477,96.383926 c -6.82878,2.861493 -12.60348,8.444134 -19.65478,12.851194"
       style="fill:none;stroke:#9e6600;stroke-width:2;stroke-linecap:butt;stroke-linejoin:miter;stroke-miterlimit:4;stroke-dasharray:none;stroke-opacity:1" />
    <path
       id="path888"
       d="m 98.273803,109.23512 c -2.86512,0.0375 -7.407077,0.22553 -9.827377,2.64583 -28.437188,28.43719 20.731904,76.43394 52.916674,56.31845"
       style="fill:none;stroke:#9e6600;stroke-width:2;stroke-linecap:butt;stroke-linejoin:miter;stroke-miterlimit:4;stroke-dasharray:none;stroke-opacity:1" />
    <path
       id="path890"
       d="m 170.08929,168.1994 c 25.7458,-0.63533 43.31589,25.34344 69.54761,5.66965"
       style="fill:none;stroke:#9e6600;stroke-width:2;stroke-linecap:butt;stroke-linejoin:miter;stroke-miterlimit:4;stroke-dasharray:none;stroke-opacity:1" />
    <path
       id="path892"
       d="m 14.096571,41.282815 c 5.205875,-2.211289 3.023788,-0.209357 5.537939,0.125863 4.213647,0.561821 8.491677,0.353486 12.712088,0.881036 0.862367,0.107796 0.794406,1.203592 1.762069,0.881036 0.488998,-0.163 0.797754,-0.6506 1.258623,-0.881036"
       style="fill:none;stroke:#000000;stroke-width:0.264583px;stroke-linecap:butt;stroke-linejoin:miter;stroke-opacity:1" />
    <path
       id="path894"
       d="m 14.222433,47.450065 c 7.349214,0.688991 0.638271,0.186253 9.439669,0.377587 1.073509,0.02334 2.177277,1.443741 3.775867,1.510347 2.826927,0.11779 5.333574,-0.881036 7.803459,-0.881036"
       style="fill:none;stroke:#000000;stroke-width:0.264583px;stroke-linecap:butt;stroke-linejoin:miter;stroke-opacity:1" />
    <path
       id="path896"
       d="m 14.096571,54.875937 c 2.852878,-0.125862 5.740877,-0.841266 8.558633,-0.377584 0.803791,0.132268 0.780429,1.467268 1.384485,2.013794 1.75717,1.58982 9.913649,-0.731599 11.201739,-1.762072"
       style="fill:none;stroke:#000000;stroke-width:0.264583px;stroke-linecap:butt;stroke-linejoin:miter;stroke-opacity:1" />
    <path
       id="path898"
       d="m 14.222433,63.182846 c 1.258623,0 2.52365,-0.126807 3.775868,0 4.092248,0.414406 8.661901,1.853512 12.712087,0.503449 1.010137,-0.336711 4.513988,-3.609403 4.908627,-1.63621"
       style="fill:none;stroke:#000000;stroke-width:0.264583px;stroke-linecap:butt;stroke-linejoin:miter;stroke-opacity:1" />
    <path
       id="path900"
       d="m 16.613816,70.356994 c 1.607611,-0.491228 3.138871,0.152572 4.531041,-0.125863"
       style="fill:none;stroke:#000000;stroke-width:0.264583px;stroke-linecap:butt;stroke-linejoin:miter;stroke-opacity:1" />
    <path
       id="path902"
       d="m 33.731081,34.23453 c 1.136581,0.0459 2.609029,-0.183023 3.524144,0"
       style="fill:none;stroke:#000000;stroke-width:0.264583px;stroke-linecap:butt;stroke-linejoin:miter;stroke-opacity:1" />
    <path
       id="path904"
       d="m 33.731081,34.23453 c 0.125862,0.587356 -0.04716,1.33732 0.377586,1.762072 0.651061,0.65106 1.596959,-0.33428 2.265522,0 0.01415,0.0071 1.006898,0.462327 1.006898,0.251724 0,-0.672576 -0.08391,-1.34253 -0.125862,-2.013796"
       style="fill:none;stroke:#000000;stroke-width:0.264583px;stroke-linecap:butt;stroke-linejoin:miter;stroke-opacity:1" />
    <path
       style="fill:none;stroke:#000000;stroke-width:0.264583px;stroke-linecap:butt;stroke-linejoin:miter;stroke-opacity:1"
       d="m 74.533095,59.168788 c 5.205875,-2.211289 3.023788,-0.209357 5.537939,0.125863 4.213647,0.561821 8.491677,0.353486 12.712088,0.881036 0.862367,0.107796 0.794406,1.203592 1.762069,0.881036 0.488998,-0.163 0.797754,-0.6506 1.258623,-0.881036"
       id="path892-6" />
    <path
       style="fill:none;stroke:#000000;stroke-width:0.264583px;stroke-linecap:butt;stroke-linejoin:miter;stroke-opacity:1"
       d="m 74.658957,65.336038 c 7.349214,0.688991 0.638271,0.186253 9.439669,0.377587 1.073509,0.02334 2.177277,1.443741 3.775867,1.510347 2.826927,0.11779 5.333574,-0.881036 7.803459,-0.881036"
       id="path894-2" />
    <path
       style="fill:none;stroke:#000000;stroke-width:0.264583px;stroke-linecap:butt;stroke-linejoin:miter;stroke-opacity:1"
       d="m 74.533095,72.76191 c 2.852878,-0.125862 5.740877,-0.841266 8.558633,-0.377584 0.803791,0.132268 0.780429,1.467268 1.384485,2.013794 1.75717,1.58982 9.913649,-0.731599 11.201739,-1.762072"
       id="path896-7" />
    <path
       style="fill:none;stroke:#000000;stroke-width:0.264583px;stroke-linecap:butt;stroke-linejoin:miter;stroke-opacity:1"
       d="m 74.658957,81.068818 c 1.258623,0 2.52365,-0.126807 3.775868,0 4.092248,0.414407 8.661901,1.853512 12.712087,0.503449 1.010137,-0.336711 4.513988,-3.609402 4.908627,-1.636209"
       id="path898-0" />
    <path
       style="fill:none;stroke:#000000;stroke-width:0.264583px;stroke-linecap:butt;stroke-linejoin:miter;stroke-opacity:1"
       d="m 77.05034,88.242966 c 1.607611,-0.491228 3.138871,0.152572 4.531041,-0.125862"
       id="path900-3" />
    <path
       style="fill:none;stroke:#000000;stroke-width:0.264583px;stroke-linecap:butt;stroke-linejoin:miter;stroke-opacity:1"
       d="m 94.167605,52.120503 c 0.125862,0.587356 -0.04716,1.33732 0.377586,1.762072 0.651061,0.65106 1.596959,-0.33428 2.265522,0 0.01415,0.0071 1.006898,0.462327 1.006898,0.251724 0,-0.672576 -0.08391,-1.34253 -0.125862,-2.013796"
       id="path904-9" />
    <path
       style="fill:none;stroke:#000000;stroke-width:0.264583px;stroke-linecap:butt;stroke-linejoin:miter;stroke-opacity:1"
       d="m 131.29697,47.211875 c 5.20588,-2.21129 3.02379,-0.209357 5.53794,0.125863 4.21365,0.561821 8.49168,0.353486 12.71209,0.881036 0.86237,0.107796 0.79441,1.203592 1.76207,0.881036 0.489,-0.163 0.79775,-0.6506 1.25862,-0.881036"
       id="path892-9" />
    <path
       style="fill:none;stroke:#000000;stroke-width:0.264583px;stroke-linecap:butt;stroke-linejoin:miter;stroke-opacity:1"
       d="m 131.42283,53.379125 c 7.34922,0.688991 0.63827,0.186253 9.43967,0.377587 1.07351,0.02334 2.17728,1.443741 3.77587,1.510347 2.82693,0.11779 5.33357,-0.881036 7.80346,-0.881036"
       id="path894-9" />
    <path
       style="fill:none;stroke:#000000;stroke-width:0.264583px;stroke-linecap:butt;stroke-linejoin:miter;stroke-opacity:1"
       d="m 131.29697,60.804997 c 2.85288,-0.125862 5.74088,-0.841266 8.55863,-0.377584 0.8038,0.132268 0.78043,1.467268 1.38449,2.013794 1.75717,1.58982 9.91365,-0.731599 11.20174,-1.762072"
       id="path896-1" />
    <path
       style="fill:none;stroke:#000000;stroke-width:0.264583px;stroke-linecap:butt;stroke-linejoin:miter;stroke-opacity:1"
       d="m 131.42283,69.111905 c 1.25863,0 2.52365,-0.126807 3.77587,0 4.09225,0.414407 8.6619,1.853512 12.71209,0.503449 1.01014,-0.336711 4.51399,-3.609402 4.90863,-1.636209"
       id="path898-7" />
    <path
       style="fill:none;stroke:#000000;stroke-width:0.264583px;stroke-linecap:butt;stroke-linejoin:miter;stroke-opacity:1"
       d="m 133.81422,76.286053 c 1.60761,-0.491228 3.13887,0.152572 4.53104,-0.125862"
       id="path900-2" />
    <path
       style="fill:none;stroke:#000000;stroke-width:0.264583px;stroke-linecap:butt;stroke-linejoin:miter;stroke-opacity:1"
       d="m 150.93148,40.16359 c 0.12586,0.587356 -0.0472,1.337319 0.37759,1.762071 0.65106,0.65106 1.59696,-0.33428 2.26552,0 0.0142,0.0071 1.0069,0.462327 1.0069,0.251724 0,-0.672576 -0.0839,-1.342529 -0.12586,-2.013795"
       id="path904-3" />
    <path
       style="fill:none;stroke:#000000;stroke-width:0.264583px;stroke-linecap:butt;stroke-linejoin:miter;stroke-opacity:1"
       d="m 150.05044,106.74472 c 5.20588,-2.21129 3.02379,-0.20936 5.53794,0.12586 4.21365,0.56182 8.49168,0.35349 12.71209,0.88104 0.86237,0.10779 0.79441,1.20359 1.76207,0.88103 0.489,-0.163 0.79775,-0.6506 1.25862,-0.88103"
       id="path892-65" />
    <path
       style="fill:none;stroke:#000000;stroke-width:0.264583px;stroke-linecap:butt;stroke-linejoin:miter;stroke-opacity:1"
       d="m 150.17631,112.91197 c 7.34921,0.68899 0.63827,0.18625 9.43967,0.37758 1.0735,0.0233 2.17727,1.44374 3.77586,1.51035 2.82693,0.11779 5.33358,-0.88104 7.80346,-0.88104"
       id="path894-5" />
    <path
       style="fill:none;stroke:#000000;stroke-width:0.264583px;stroke-linecap:butt;stroke-linejoin:miter;stroke-opacity:1"
       d="m 150.05044,120.33784 c 2.85288,-0.12586 5.74088,-0.84127 8.55864,-0.37759 0.80379,0.13227 0.78043,1.46727 1.38448,2.0138 1.75717,1.58982 9.91365,-0.7316 11.20174,-1.76207"
       id="path896-8" />
    <path
       style="fill:none;stroke:#000000;stroke-width:0.264583px;stroke-linecap:butt;stroke-linejoin:miter;stroke-opacity:1"
       d="m 150.17631,128.64475 c 1.25862,0 2.52365,-0.12681 3.77586,0 4.09225,0.4144 8.66191,1.85351 12.71209,0.50345 1.01014,-0.33672 4.51399,-3.60941 4.90863,-1.63621"
       id="path898-1" />
    <path
       style="fill:none;stroke:#000000;stroke-width:0.264583px;stroke-linecap:butt;stroke-linejoin:miter;stroke-opacity:1"
       d="m 152.56769,135.81889 c 1.60761,-0.49122 3.13887,0.15258 4.53104,-0.12586"
       id="path900-4" />
    <path
       style="fill:none;stroke:#000000;stroke-width:0.264583px;stroke-linecap:butt;stroke-linejoin:miter;stroke-opacity:1"
       d="m 169.68495,99.696432 c 0.12587,0.587358 -0.0472,1.337318 0.37759,1.762068 0.65106,0.65106 1.59696,-0.33428 2.26552,0 0.0142,0.007 1.0069,0.46233 1.0069,0.25173 0,-0.67258 -0.0839,-1.34253 -0.12586,-2.013798"
       id="path904-7" />
    <path
       style="fill:none;stroke:#000000;stroke-width:0.264583px;stroke-linecap:butt;stroke-linejoin:miter;stroke-opacity:1"
       d="m 101.71934,119.58267 c 5.20588,-2.21129 3.02379,-0.20936 5.53794,0.12586 4.21365,0.56182 8.49168,0.35349 12.71209,0.88104 0.86237,0.10779 0.79441,1.20359 1.76207,0.88103 0.489,-0.163 0.79775,-0.6506 1.25862,-0.88103"
       id="path892-1" />
    <path
       style="fill:none;stroke:#000000;stroke-width:0.264583px;stroke-linecap:butt;stroke-linejoin:miter;stroke-opacity:1"
       d="m 101.8452,125.74992 c 7.34922,0.68899 0.63827,0.18625 9.43967,0.37758 1.07351,0.0233 2.17728,1.44375 3.77587,1.51035 2.82693,0.11779 5.33357,-0.88103 7.80346,-0.88103"
       id="path894-3" />
    <path
       style="fill:none;stroke:#000000;stroke-width:0.264583px;stroke-linecap:butt;stroke-linejoin:miter;stroke-opacity:1"
       d="m 101.71934,133.17579 c 2.85288,-0.12586 5.74088,-0.84127 8.55863,-0.37758 0.80379,0.13226 0.78043,1.46726 1.38449,2.01379 1.75717,1.58982 9.91365,-0.7316 11.20174,-1.76207"
       id="path896-84" />
    <path
       style="fill:none;stroke:#000000;stroke-width:0.264583px;stroke-linecap:butt;stroke-linejoin:miter;stroke-opacity:1"
       d="m 101.8452,141.4827 c 1.25863,0 2.52365,-0.12681 3.77587,0 4.09225,0.4144 8.6619,1.85351 12.71209,0.50345 1.01013,-0.33671 4.51399,-3.60941 4.90863,-1.63621"
       id="path898-8" />
    <path
       style="fill:none;stroke:#000000;stroke-width:0.264583px;stroke-linecap:butt;stroke-linejoin:miter;stroke-opacity:1"
       d="m 104.23659,148.65685 c 1.60761,-0.49123 3.13887,0.15257 4.53104,-0.12587"
       id="path900-0" />
    <path
       style="fill:none;stroke:#000000;stroke-width:0.264583px;stroke-linecap:butt;stroke-linejoin:miter;stroke-opacity:1"
       d="m 121.35385,112.53438 c 0.12586,0.58736 -0.0472,1.33732 0.37759,1.76207 0.65106,0.65106 1.59696,-0.33428 2.26552,0 0.0142,0.007 1.0069,0.46233 1.0069,0.25173 0,-0.67258 -0.0839,-1.34253 -0.12586,-2.0138"
       id="path904-4" />
    <path
       style="fill:none;stroke:#000000;stroke-width:0.264583px;stroke-linecap:butt;stroke-linejoin:miter;stroke-opacity:1"
       d="m 144.63836,178.10861 c 5.20588,-2.21129 3.02379,-0.20936 5.53794,0.12586 4.21365,0.56182 8.49168,0.35349 12.71209,0.88104 0.86237,0.10779 0.7944,1.20359 1.76207,0.88103 0.489,-0.163 0.79775,-0.6506 1.25862,-0.88103"
       id="path892-60" />
    <path
       style="fill:none;stroke:#000000;stroke-width:0.264583px;stroke-linecap:butt;stroke-linejoin:miter;stroke-opacity:1"
       d="m 144.76422,184.27586 c 7.34922,0.68899 0.63827,0.18625 9.43967,0.37759 1.07351,0.0233 2.17728,1.44374 3.77587,1.51034 2.82693,0.11779 5.33357,-0.88103 7.80346,-0.88103"
       id="path894-32" />
    <path
       style="fill:none;stroke:#000000;stroke-width:0.264583px;stroke-linecap:butt;stroke-linejoin:miter;stroke-opacity:1"
       d="m 144.63836,191.70173 c 2.85288,-0.12586 5.74088,-0.84126 8.55863,-0.37758 0.8038,0.13227 0.78043,1.46727 1.38449,2.01379 1.75717,1.58982 9.91365,-0.7316 11.20174,-1.76207"
       id="path896-6" />
    <path
       style="fill:none;stroke:#000000;stroke-width:0.264583px;stroke-linecap:butt;stroke-linejoin:miter;stroke-opacity:1"
       d="m 144.76422,200.00864 c 1.25863,0 2.52365,-0.12681 3.77587,0 4.09225,0.41441 8.6619,1.85351 12.71209,0.50345 1.01014,-0.33671 4.51399,-3.6094 4.90863,-1.63621"
       id="path898-9" />
    <path
       style="fill:none;stroke:#000000;stroke-width:0.264583px;stroke-linecap:butt;stroke-linejoin:miter;stroke-opacity:1"
       d="m 147.15561,207.18279 c 1.60761,-0.49123 3.13887,0.15257 4.53104,-0.12586"
       id="path900-41" />
    <path
       style="fill:none;stroke:#000000;stroke-width:0.264583px;stroke-linecap:butt;stroke-linejoin:miter;stroke-opacity:1"
       d="m 164.27287,171.06032 c 0.12586,0.58736 -0.0472,1.33732 0.37759,1.76208 0.65106,0.65106 1.59696,-0.33428 2.26552,0 0.0142,0.007 1.0069,0.46232 1.0069,0.25172 0,-0.67258 -0.0839,-1.34253 -0.12586,-2.0138"
       id="path904-37" />
  </g>
</svg>
